<svg width="28" height="28" viewBox="0 0 28 28" fill="none" xmlns="http://www.w3.org/2000/svg">
<rect width="28" height="28" rx="2.47059" fill="#4ADE80"/>
<path fill-rule="evenodd" clip-rule="evenodd" d="M11.5186 4.63922C12.981 4.33958 14.4889 4.33958 15.9513 4.63922C16.5838 4.76882 17.0708 5.27513 17.1758 5.9122L17.2288 6.23393C17.6739 8.93463 17.6739 11.69 17.2288 14.3907L17.1758 14.7124C17.0708 15.3495 16.5838 15.8558 15.9513 15.9854C14.4889 16.285 12.981 16.285 11.5186 15.9854C10.8861 15.8558 10.3991 15.3495 10.2941 14.7124L10.2411 14.3907C9.79596 11.69 9.79596 8.93463 10.2411 6.23393L10.2941 5.9122C10.3991 5.27513 10.8861 4.76882 11.5186 4.63922ZM15.6568 6.07624C14.3887 5.81641 13.0812 5.81641 11.8131 6.07624C11.7761 6.08382 11.7476 6.11345 11.7414 6.15074L11.6884 6.47246C11.2693 9.01521 11.2693 11.6094 11.6884 14.1522L11.7414 14.4739C11.7476 14.5112 11.7761 14.5408 11.8131 14.5484C13.0812 14.8082 14.3887 14.8082 15.6568 14.5484C15.6938 14.5408 15.7223 14.5112 15.7285 14.4739L15.7815 14.1522C16.2006 11.6094 16.2006 9.01521 15.7815 6.47246L15.7285 6.15073C15.7223 6.11345 15.6938 6.08382 15.6568 6.07624Z" fill="white"/>
<path d="M6.78664 13.0088C7.1877 12.952 7.55889 13.2311 7.61572 13.6321L8.05628 16.7412C8.17531 17.5812 8.84119 18.238 9.68277 18.3455C12.3733 18.6892 15.0966 18.6892 17.7871 18.3455C18.6287 18.238 19.2946 17.5812 19.4136 16.7412L19.8542 13.6321C19.911 13.2311 20.2822 12.952 20.6833 13.0088C21.0843 13.0657 21.3634 13.4369 21.3066 13.8379L20.866 16.947C20.6543 18.4411 19.4699 19.6094 17.973 19.8006C16.809 19.9493 15.6392 20.0364 14.4684 20.0621V24.0031C14.4684 24.4082 14.14 24.7366 13.735 24.7366C13.3299 24.7366 13.0015 24.4082 13.0015 24.0031V20.0621C11.8307 20.0364 10.6609 19.9493 9.49691 19.8006C8.00002 19.6094 6.81563 18.4411 6.60391 16.947L6.16335 13.8379C6.10652 13.4369 6.38558 13.0657 6.78664 13.0088Z" fill="white"/>
</svg>
