<svg width="127" height="34" viewBox="0 0 127 34" fill="none" xmlns="http://www.w3.org/2000/svg">
<g filter="url(#filter0_d_33_13)">
<path d="M38.233 19.2019C37.5507 19.2019 36.9427 19.0835 36.4089 18.8468C35.8751 18.6055 35.4528 18.2504 35.1418 17.7816C34.8355 17.3082 34.6823 16.7187 34.6823 16.0132C34.6823 15.4191 34.7914 14.9202 35.0095 14.5164C35.2277 14.1126 35.5247 13.7877 35.9007 13.5417C36.2766 13.2957 36.7036 13.11 37.1817 12.9847C37.6644 12.8594 38.1703 12.7712 38.6994 12.7202C39.3214 12.6552 39.8227 12.5948 40.2033 12.5391C40.5839 12.4788 40.86 12.3906 41.0317 12.2746C41.2035 12.1586 41.2893 11.9868 41.2893 11.7594V11.7176C41.2893 11.2767 41.1501 10.9355 40.8716 10.6942C40.5978 10.4528 40.2079 10.3322 39.702 10.3322C39.1682 10.3322 38.7435 10.4505 38.4279 10.6872C38.1123 10.9193 37.9034 11.2117 37.8013 11.5644L35.0582 11.3417C35.1975 10.6919 35.4713 10.1303 35.8798 9.65683C36.2882 9.17876 36.815 8.81209 37.4602 8.55681C38.11 8.29689 38.8619 8.16693 39.7159 8.16693C40.31 8.16693 40.8786 8.23655 41.4216 8.37579C41.9693 8.51504 42.4543 8.73086 42.8767 9.02327C43.3037 9.31568 43.6402 9.69164 43.8862 10.1511C44.1322 10.606 44.2552 11.1514 44.2552 11.7872V19H41.4425V17.5171H41.359C41.1872 17.8512 40.9575 18.146 40.6697 18.4013C40.3819 18.6519 40.0362 18.8492 39.6324 18.993C39.2286 19.1323 38.7621 19.2019 38.233 19.2019ZM39.0824 17.155C39.5186 17.155 39.9039 17.0692 40.2381 16.8974C40.5722 16.7211 40.8345 16.4844 41.0248 16.1873C41.2151 15.8903 41.3102 15.5537 41.3102 15.1778V14.043C41.2174 14.1033 41.0898 14.159 40.9273 14.2101C40.7695 14.2565 40.5908 14.3006 40.3912 14.3423C40.1917 14.3795 39.9921 14.4143 39.7925 14.4468C39.5929 14.4746 39.4119 14.5001 39.2494 14.5234C38.9013 14.5744 38.5973 14.6556 38.3374 14.767C38.0775 14.8784 37.8756 15.0293 37.7317 15.2196C37.5878 15.4052 37.5159 15.6373 37.5159 15.9158C37.5159 16.3196 37.6621 16.6282 37.9545 16.8417C38.2515 17.0506 38.6275 17.155 39.0824 17.155ZM53.4139 14.4468V8.30617H56.3798V19H53.5322V17.0576H53.4209C53.1795 17.6842 52.778 18.1878 52.2164 18.5683C51.6594 18.9489 50.9795 19.1392 50.1765 19.1392C49.4617 19.1392 48.8328 18.9768 48.2898 18.6519C47.7467 18.327 47.322 17.8652 47.0157 17.2664C46.714 16.6677 46.5608 15.9506 46.5562 15.1151V8.30617H49.5221V14.586C49.5267 15.2172 49.6961 15.7162 50.0303 16.0829C50.3645 16.4495 50.8124 16.6329 51.374 16.6329C51.7314 16.6329 52.0656 16.5517 52.3765 16.3892C52.6875 16.2221 52.9381 15.9761 53.1284 15.6512C53.3234 15.3263 53.4185 14.9248 53.4139 14.4468ZM62.6927 19.1741C61.8804 19.1741 61.1448 18.9652 60.4857 18.5475C59.8312 18.1251 59.3114 17.5055 58.9262 16.6886C58.5456 15.867 58.3553 14.8599 58.3553 13.667C58.3553 12.4417 58.5525 11.4229 58.947 10.6106C59.3416 9.79375 59.866 9.1834 60.5205 8.7796C61.1796 8.37115 61.9013 8.16693 62.6857 8.16693C63.2844 8.16693 63.7834 8.26904 64.1826 8.47326C64.5864 8.67285 64.9113 8.92348 65.1573 9.22517C65.4079 9.52222 65.5982 9.81463 65.7282 10.1024H65.8187V4.74156H68.7776V19H65.8535V17.2873H65.7282C65.5889 17.5844 65.3916 17.8791 65.1364 18.1715C64.8857 18.4593 64.5585 18.6983 64.1547 18.8886C63.7555 19.0789 63.2682 19.1741 62.6927 19.1741ZM63.6326 16.8139C64.1106 16.8139 64.5144 16.6839 64.844 16.424C65.1781 16.1595 65.4334 15.7905 65.6098 15.317C65.7908 14.8436 65.8813 14.289 65.8813 13.6531C65.8813 13.0172 65.7931 12.4649 65.6168 11.9961C65.4404 11.5273 65.1851 11.1653 64.8509 10.91C64.5167 10.6547 64.1106 10.5271 63.6326 10.5271C63.1452 10.5271 62.7344 10.6594 62.4003 10.9239C62.0661 11.1885 61.8131 11.5552 61.6414 12.0239C61.4697 12.4927 61.3838 13.0358 61.3838 13.6531C61.3838 14.275 61.4697 14.825 61.6414 15.3031C61.8178 15.7765 62.0707 16.1478 62.4003 16.4171C62.7344 16.6816 63.1452 16.8139 63.6326 16.8139ZM71.216 19V8.30617H74.1819V19H71.216ZM72.7059 6.92767C72.265 6.92767 71.8867 6.78147 71.5711 6.48906C71.2601 6.19201 71.1047 5.83694 71.1047 5.42385C71.1047 5.01541 71.2601 4.66498 71.5711 4.37257C71.8867 4.07552 72.265 3.927 72.7059 3.927C73.1469 3.927 73.5228 4.07552 73.8338 4.37257C74.1494 4.66498 74.3072 5.01541 74.3072 5.42385C74.3072 5.83694 74.1494 6.19201 73.8338 6.48906C73.5228 6.78147 73.1469 6.92767 72.7059 6.92767ZM81.3895 19.2089C80.308 19.2089 79.3728 18.9791 78.5837 18.5196C77.7993 18.0555 77.1936 17.4103 76.7666 16.5841C76.3396 15.7533 76.1261 14.7902 76.1261 13.6949C76.1261 12.5902 76.3396 11.6248 76.7666 10.7986C77.1936 9.9678 77.7993 9.32264 78.5837 8.86314C79.3728 8.399 80.308 8.16693 81.3895 8.16693C82.4709 8.16693 83.4038 8.399 84.1882 8.86314C84.9773 9.32264 85.5853 9.9678 86.0123 10.7986C86.4393 11.6248 86.6528 12.5902 86.6528 13.6949C86.6528 14.7902 86.4393 15.7533 86.0123 16.5841C85.5853 17.4103 84.9773 18.0555 84.1882 18.5196C83.4038 18.9791 82.4709 19.2089 81.3895 19.2089ZM81.4034 16.9114C81.8954 16.9114 82.3061 16.7721 82.6357 16.4936C82.9652 16.2105 83.2135 15.8253 83.3806 15.3379C83.5524 14.8506 83.6382 14.2959 83.6382 13.674C83.6382 13.052 83.5524 12.4974 83.3806 12.01C83.2135 11.5227 82.9652 11.1374 82.6357 10.8543C82.3061 10.5712 81.8954 10.4296 81.4034 10.4296C80.9067 10.4296 80.489 10.5712 80.1502 10.8543C79.816 11.1374 79.5631 11.5227 79.3913 12.01C79.2242 12.4974 79.1407 13.052 79.1407 13.674C79.1407 14.2959 79.2242 14.8506 79.3913 15.3379C79.5631 15.8253 79.816 16.2105 80.1502 16.4936C80.489 16.7721 80.9067 16.9114 81.4034 16.9114ZM94.2694 8.30617V10.5341H87.8294V8.30617H94.2694ZM89.2915 5.74411H92.2573V15.7139C92.2573 15.9877 92.2991 16.2012 92.3827 16.3544C92.4662 16.5029 92.5822 16.6073 92.7308 16.6677C92.8839 16.728 93.0603 16.7582 93.2599 16.7582C93.3991 16.7582 93.5384 16.7466 93.6776 16.7234C93.8169 16.6955 93.9236 16.6746 93.9979 16.6607L94.4643 18.8677C94.3158 18.9141 94.1069 18.9675 93.8377 19.0278C93.5685 19.0928 93.2413 19.1323 92.8561 19.1462C92.1413 19.1741 91.5147 19.0789 90.9763 18.8608C90.4425 18.6426 90.0271 18.3038 89.7301 17.8443C89.433 17.3848 89.2868 16.8046 89.2915 16.1038V5.74411ZM96.2014 19V8.30617H99.1672V19H96.2014ZM97.6913 6.92767C97.2503 6.92767 96.8721 6.78147 96.5564 6.48906C96.2455 6.19201 96.09 5.83694 96.09 5.42385C96.09 5.01541 96.2455 4.66498 96.5564 4.37257C96.8721 4.07552 97.2503 3.927 97.6913 3.927C98.1322 3.927 98.5082 4.07552 98.8191 4.37257C99.1348 4.66498 99.2926 5.01541 99.2926 5.42385C99.2926 5.83694 99.1348 6.19201 98.8191 6.48906C98.5082 6.78147 98.1322 6.92767 97.6913 6.92767ZM101.487 19V17.2316L106.723 10.7499V10.6733H101.668V8.30617H110.294V10.2347L105.379 16.5563V16.6329H110.475V19H101.487ZM117.311 19.2089C116.211 19.2089 115.264 18.9861 114.47 18.5405C113.681 18.0903 113.073 17.4544 112.646 16.6329C112.219 15.8067 112.005 14.8297 112.005 13.7018C112.005 12.6018 112.219 11.6364 112.646 10.8056C113.073 9.97476 113.674 9.32729 114.449 8.86314C115.229 8.399 116.143 8.16693 117.192 8.16693C117.898 8.16693 118.554 8.28065 119.162 8.50808C119.775 8.73086 120.309 9.06737 120.764 9.51758C121.223 9.9678 121.581 10.5341 121.836 11.2163C122.091 11.894 122.219 12.6877 122.219 13.5974V14.412H113.189V12.574H119.427C119.427 12.1469 119.334 11.7687 119.149 11.4391C118.963 11.1096 118.705 10.852 118.376 10.6663C118.051 10.476 117.673 10.3809 117.241 10.3809C116.791 10.3809 116.392 10.4853 116.043 10.6942C115.7 10.8984 115.431 11.1746 115.236 11.5227C115.041 11.8661 114.941 12.2491 114.936 12.6714V14.4189C114.936 14.948 115.034 15.4052 115.229 15.7905C115.428 16.1757 115.709 16.4727 116.071 16.6816C116.433 16.8905 116.863 16.9949 117.359 16.9949C117.689 16.9949 117.991 16.9485 118.264 16.8557C118.538 16.7628 118.773 16.6236 118.968 16.4379C119.162 16.2523 119.311 16.0249 119.413 15.7556L122.156 15.9367C122.017 16.5957 121.731 17.1713 121.3 17.6633C120.873 18.1506 120.321 18.5312 119.643 18.8051C118.97 19.0743 118.192 19.2089 117.311 19.2089Z" fill="#4ADE80"/>
</g>
<rect y="1" width="28" height="28" rx="2.47059" fill="#4ADE80"/>
<g filter="url(#filter1_d_33_13)">
<path fill-rule="evenodd" clip-rule="evenodd" d="M11.5186 5.63922C12.981 5.33958 14.4889 5.33958 15.9513 5.63922C16.5838 5.76882 17.0708 6.27513 17.1758 6.9122L17.2288 7.23393C17.6739 9.93463 17.6739 12.69 17.2288 15.3907L17.1758 15.7124C17.0708 16.3495 16.5838 16.8558 15.9513 16.9854C14.4889 17.285 12.981 17.285 11.5186 16.9854C10.8861 16.8558 10.3991 16.3495 10.2941 15.7124L10.2411 15.3907C9.79596 12.69 9.79596 9.93463 10.2411 7.23393L10.2941 6.9122C10.3991 6.27513 10.8861 5.76882 11.5186 5.63922ZM15.6568 7.07624C14.3887 6.81641 13.0812 6.81641 11.8131 7.07624C11.7761 7.08382 11.7476 7.11345 11.7414 7.15074L11.6884 7.47246C11.2693 10.0152 11.2693 12.6094 11.6884 15.1522L11.7414 15.4739C11.7476 15.5112 11.7761 15.5408 11.8131 15.5484C13.0812 15.8082 14.3887 15.8082 15.6568 15.5484C15.6938 15.5408 15.7223 15.5112 15.7285 15.4739L15.7815 15.1522C16.2006 12.6094 16.2006 10.0152 15.7815 7.47246L15.7285 7.15073C15.7223 7.11345 15.6938 7.08382 15.6568 7.07624Z" fill="white"/>
<path d="M6.78664 14.0088C7.1877 13.952 7.55889 14.2311 7.61572 14.6321L8.05628 17.7412C8.17531 18.5812 8.84119 19.238 9.68277 19.3455C12.3733 19.6892 15.0966 19.6892 17.7871 19.3455C18.6287 19.238 19.2946 18.5812 19.4136 17.7412L19.8542 14.6321C19.911 14.2311 20.2822 13.952 20.6833 14.0088C21.0843 14.0657 21.3634 14.4369 21.3066 14.8379L20.866 17.947C20.6543 19.4411 19.4699 20.6094 17.973 20.8006C16.809 20.9493 15.6392 21.0364 14.4684 21.0621V25.0031C14.4684 25.4082 14.14 25.7366 13.735 25.7366C13.3299 25.7366 13.0015 25.4082 13.0015 25.0031V21.0621C11.8307 21.0364 10.6609 20.9493 9.49691 20.8006C8.00002 20.6094 6.81563 19.4411 6.60391 17.947L6.16335 14.8379C6.10652 14.4369 6.38558 14.0657 6.78664 14.0088Z" fill="white"/>
</g>
<defs>
<filter id="filter0_d_33_13" x="30.6823" y="3.927" width="95.5365" height="23.2819" filterUnits="userSpaceOnUse" color-interpolation-filters="sRGB">
<feFlood flood-opacity="0" result="BackgroundImageFix"/>
<feColorMatrix in="SourceAlpha" type="matrix" values="0 0 0 0 0 0 0 0 0 0 0 0 0 0 0 0 0 0 127 0" result="hardAlpha"/>
<feOffset dy="4"/>
<feGaussianBlur stdDeviation="2"/>
<feComposite in2="hardAlpha" operator="out"/>
<feColorMatrix type="matrix" values="0 0 0 0 0 0 0 0 0 0 0 0 0 0 0 0 0 0 0.25 0"/>
<feBlend mode="normal" in2="BackgroundImageFix" result="effect1_dropShadow_33_13"/>
<feBlend mode="normal" in="SourceGraphic" in2="effect1_dropShadow_33_13" result="shape"/>
</filter>
<filter id="filter1_d_33_13" x="-2" y="3" width="31.47" height="31.47" filterUnits="userSpaceOnUse" color-interpolation-filters="sRGB">
<feFlood flood-opacity="0" result="BackgroundImageFix"/>
<feColorMatrix in="SourceAlpha" type="matrix" values="0 0 0 0 0 0 0 0 0 0 0 0 0 0 0 0 0 0 127 0" result="hardAlpha"/>
<feOffset dy="4"/>
<feGaussianBlur stdDeviation="2"/>
<feComposite in2="hardAlpha" operator="out"/>
<feColorMatrix type="matrix" values="0 0 0 0 0 0 0 0 0 0 0 0 0 0 0 0 0 0 0.25 0"/>
<feBlend mode="normal" in2="BackgroundImageFix" result="effect1_dropShadow_33_13"/>
<feBlend mode="normal" in="SourceGraphic" in2="effect1_dropShadow_33_13" result="shape"/>
</filter>
</defs>
</svg>
